<svg id="visual" viewBox="0 0 900 450" width="900" height="450" xmlns="http://www.w3.org/2000/svg" xmlns:xlink="http://www.w3.org/1999/xlink" version="1.1"><rect x="0" y="0" width="900" height="450" fill="#98bfda"></rect><path d="M0 384L16.7 382.2C33.3 380.3 66.7 376.7 100 379.8C133.3 383 166.7 393 200 395.5C233.3 398 266.7 393 300 388.5C333.3 384 366.7 380 400 381.2C433.3 382.3 466.7 388.7 500 387.3C533.3 386 566.7 377 600 372.8C633.3 368.7 666.7 369.3 700 374C733.3 378.7 766.7 387.3 800 387.3C833.3 387.3 866.7 378.7 883.3 374.3L900 370L900 451L883.3 451C866.7 451 833.3 451 800 451C766.7 451 733.3 451 700 451C666.7 451 633.3 451 600 451C566.7 451 533.3 451 500 451C466.7 451 433.3 451 400 451C366.7 451 333.3 451 300 451C266.7 451 233.3 451 200 451C166.7 451 133.3 451 100 451C66.7 451 33.3 451 16.7 451L0 451Z" fill="#146c94"></path><path d="M0 411L16.7 409.7C33.3 408.3 66.7 405.7 100 401.5C133.3 397.3 166.7 391.7 200 392.5C233.3 393.3 266.7 400.7 300 406.2C333.3 411.7 366.7 415.3 400 416.5C433.3 417.7 466.7 416.3 500 414.2C533.3 412 566.7 409 600 404.7C633.3 400.3 666.7 394.7 700 392C733.3 389.3 766.7 389.7 800 393.8C833.3 398 866.7 406 883.3 410L900 414L900 451L883.3 451C866.7 451 833.3 451 800 451C766.7 451 733.3 451 700 451C666.7 451 633.3 451 600 451C566.7 451 533.3 451 500 451C466.7 451 433.3 451 400 451C366.7 451 333.3 451 300 451C266.7 451 233.3 451 200 451C166.7 451 133.3 451 100 451C66.7 451 33.3 451 16.7 451L0 451Z" fill="#157fa7"></path><path d="M0 425L16.7 425.8C33.3 426.7 66.7 428.3 100 424.3C133.3 420.3 166.7 410.7 200 408.2C233.3 405.7 266.7 410.3 300 414C333.3 417.7 366.7 420.3 400 422C433.3 423.7 466.7 424.3 500 422.7C533.3 421 566.7 417 600 417C633.3 417 666.7 421 700 422.3C733.3 423.7 766.7 422.3 800 419.7C833.3 417 866.7 413 883.3 411L900 409L900 451L883.3 451C866.7 451 833.3 451 800 451C766.7 451 733.3 451 700 451C666.7 451 633.3 451 600 451C566.7 451 533.3 451 500 451C466.7 451 433.3 451 400 451C366.7 451 333.3 451 300 451C266.7 451 233.3 451 200 451C166.7 451 133.3 451 100 451C66.7 451 33.3 451 16.7 451L0 451Z" fill="#1793bb"></path><path d="M0 428L16.7 429.3C33.3 430.7 66.7 433.3 100 434.8C133.3 436.3 166.7 436.7 200 433.7C233.3 430.7 266.7 424.3 300 424.7C333.3 425 366.7 432 400 436.5C433.3 441 466.7 443 500 442.8C533.3 442.7 566.7 440.3 600 438.7C633.3 437 666.7 436 700 434C733.3 432 766.7 429 800 428.3C833.3 427.7 866.7 429.3 883.3 430.2L900 431L900 451L883.3 451C866.7 451 833.3 451 800 451C766.7 451 733.3 451 700 451C666.7 451 633.3 451 600 451C566.7 451 533.3 451 500 451C466.7 451 433.3 451 400 451C366.7 451 333.3 451 300 451C266.7 451 233.3 451 200 451C166.7 451 133.3 451 100 451C66.7 451 33.3 451 16.7 451L0 451Z" fill="#19a7ce"></path></svg>